<?xml version="1.0" standalone="no"?>
<!DOCTYPE svg PUBLIC "-//W3C//DTD SVG 20010904//EN"
 "http://www.w3.org/TR/2001/REC-SVG-20010904/DTD/svg10.dtd">
<svg version="1.0" xmlns="http://www.w3.org/2000/svg"
 width="231.000000pt" height="140.000000pt" viewBox="0 0 231.000000 140.000000"
 preserveAspectRatio="xMidYMid meet">

<g transform="translate(0.000000,140.000000) scale(0.100000,-0.100000)"
fill="#000000" stroke="none">
<path d="M1150 1134 c-143 -17 -260 -40 -348 -70 -57 -19 -108 -34 -113 -34
-4 0 -15 12 -22 27 -14 26 -15 26 -21 5 -10 -31 7 -56 60 -87 106 -62 164
-139 164 -217 0 -113 -121 -255 -316 -372 -68 -41 -84 -44 -84 -15 0 11 5 17
10 14 6 -3 10 -2 10 4 0 5 -4 12 -10 16 -5 3 -7 12 -3 21 5 13 8 12 26 -3 20
-17 20 -17 13 2 -22 54 -16 71 12 43 15 -15 16 -3 2 22 -13 24 5 37 25 20 19
-16 19 0 0 27 -20 28 2 45 22 18 19 -28 17 4 -3 33 -21 30 -8 48 19 25 l21
-18 -20 35 c-25 44 -21 69 7 44 26 -23 24 -3 -2 30 -12 15 -19 29 -17 32 3 2
27 -7 54 -21 27 -14 50 -25 52 -25 13 0 -48 66 -80 88 -22 14 -36 28 -31 29
10 4 72 -9 108 -22 16 -6 15 -3 -5 14 -14 12 -36 24 -50 27 -42 11 -43 15 -11
35 48 29 37 38 -21 18 -59 -20 -114 -26 -88 -9 25 16 -10 12 -40 -5 -14 -8
-44 -14 -67 -15 -23 0 -44 -4 -47 -9 -4 -5 -24 -12 -46 -16 -22 -4 -47 -14
-56 -22 -13 -14 -13 -17 7 -30 11 -9 43 -17 70 -18 54 -3 79 -18 79 -46 0 -21
16 -26 23 -6 3 6 6 -4 6 -24 1 -41 -13 -63 -106 -160 -34 -37 -68 -80 -74 -95
-17 -43 -29 -112 -23 -129 8 -19 97 -52 175 -64 124 -20 239 11 371 101 78 54
128 72 175 65 34 -6 34 -5 28 23 -10 46 3 70 49 90 56 25 152 33 261 22 50 -6
91 -9 93 -7 2 1 -14 13 -35 26 -69 42 -143 99 -159 124 -55 84 111 105 448 56
65 -9 114 -14 110 -10 -4 3 -52 35 -107 71 -119 77 -168 121 -163 145 3 15 12
18 48 15 155 -8 390 -106 550 -229 25 -19 20 -11 -20 31 -203 215 -362 307
-623 360 -78 16 -231 26 -287 20z"/>
</g>
</svg>
